<?xml version="1.0" encoding="UTF-8"?>
<svg version="1.1" xmlns="http://www.w3.org/2000/svg" width="800" height="800">
<path d="M0 0 C1.24506821 -0.00686325 2.49013641 -0.0137265 3.77293396 -0.02079773 C7.16358006 -0.03588833 10.55367291 -0.03758081 13.94431114 -0.03185534 C16.78466326 -0.02874912 19.62496641 -0.03487163 22.46531153 -0.04089409 C29.16978749 -0.0549032 35.87413592 -0.05340768 42.57861328 -0.04199219 C49.47530868 -0.0305083 56.37161532 -0.04459912 63.26825953 -0.07138866 C69.20996144 -0.09359719 75.15154178 -0.10017167 81.09328222 -0.09431225 C84.63312954 -0.09095448 88.17272761 -0.09327876 91.71253967 -0.11056328 C95.66137756 -0.12900678 99.60974266 -0.11479232 103.55859375 -0.09765625 C104.71834213 -0.10732422 105.87809052 -0.11699219 107.07298279 -0.12695312 C114.04645361 -0.06373538 119.17997592 0.99514854 125.27929688 4.40405273 C126.16101563 4.87327148 127.04273438 5.34249023 127.95117188 5.82592773 C134.8523221 10.23643727 138.64271609 15.23287909 140.85493469 23.16557312 C141.76160743 27.94820577 141.51917767 32.83199669 141.47460938 37.68139648 C141.47036453 39.43112511 141.47036453 39.43112511 141.46603394 41.21620178 C141.45488076 44.9247585 141.42978473 48.63306958 141.40429688 52.34155273 C141.39426081 54.86303361 141.38513605 57.38451829 141.37695312 59.90600586 C141.35495731 66.07210463 141.32152805 72.23806113 141.27929688 78.40405273 C142.19420898 78.58943604 143.10912109 78.77481934 144.05175781 78.96582031 C150.68542605 80.34238065 157.16944257 81.74374071 163.52929688 84.09155273 C164.23489746 84.34718994 164.94049805 84.60282715 165.66748047 84.86621094 C176.17460181 88.75451803 186.31772413 93.46818264 196.38867188 98.36108398 C197.42813965 98.86486572 198.46760742 99.36864746 199.53857422 99.88769531 C201.5844967 100.88340324 203.6266437 101.88691402 205.66455078 102.89892578 C207.06326416 103.58208862 207.06326416 103.58208862 208.49023438 104.27905273 C209.3182959 104.68897461 210.14635742 105.09889648 210.99951172 105.52124023 C213.49352251 106.64479018 213.49352251 106.64479018 217.27929688 106.40405273 C219.08506265 105.14988316 219.08506265 105.14988316 220.72753906 103.34643555 C221.38212097 102.67864075 222.03670288 102.01084595 222.71112061 101.32281494 C223.75807098 100.22607452 223.75807098 100.22607452 224.82617188 99.10717773 C225.55620422 98.3619989 226.28623657 97.61682007 227.03839111 96.84906006 C230.16391835 93.65815883 233.26563932 90.44448292 236.36914062 87.23217773 C238.63810511 84.89051456 240.91924616 82.56120124 243.20117188 80.23217773 C243.89104187 79.50911438 244.58091187 78.78605103 245.29168701 78.04107666 C253.12451038 70.05313383 260.35017092 67.23744021 271.46679688 67.09155273 C272.5428418 67.04804688 272.5428418 67.04804688 273.640625 67.00366211 C281.65692069 66.91036592 287.80135803 69.75424822 293.66876221 75.17205811 C295.22513549 76.70503376 296.76811882 78.25168354 298.29980469 79.80932617 C299.15140167 80.65537415 300.00299866 81.50142212 300.88040161 82.37310791 C303.19529928 84.67827243 305.4987348 86.99415404 307.79694462 89.31593609 C310.21543696 91.75467027 312.64704896 94.18026299 315.07684326 96.60772705 C319.15364873 100.68458595 323.22052907 104.77113715 327.28125 108.86401367 C331.96194138 113.58159145 336.65652988 118.28496746 341.35918164 122.9806478 C345.90107969 127.51621904 350.4343545 132.06031014 354.96334076 136.60877228 C356.88255219 138.53611323 358.80442065 140.46074397 360.72849274 142.38323212 C363.41864789 145.07519164 366.09877237 147.77675538 368.77636719 150.48120117 C369.962491 151.66292908 369.962491 151.66292908 371.1725769 152.86853027 C379.40807689 161.23132106 384.2540569 168.69863874 384.59179688 180.71655273 C384.16015616 199.5792518 370.26057176 209.5697853 357.71679688 222.02905273 C356.40861908 223.3322022 355.10067471 224.63558603 353.79296875 225.93920898 C350.62442474 229.09686065 347.4527551 232.25134024 344.27929688 235.40405273 C345.58534179 238.79924166 347.05336179 242.01059967 348.74804688 245.22827148 C373.27929688 292.53066349 373.27929688 292.53066349 373.27929688 310.40405273 C373.93360687 310.39294968 374.58791687 310.38184662 375.26205444 310.3704071 C382.10831979 310.2592845 388.9543265 310.18416657 395.80126953 310.12939453 C398.35215675 310.10434146 400.90297283 310.07028946 403.45361328 310.02685547 C407.13266614 309.96580129 410.81076508 309.93774925 414.49023438 309.91577148 C415.6198056 309.88996506 416.74937683 309.86415863 417.91317749 309.83757019 C428.87244016 309.83373924 436.44088584 313.8867276 444.36523438 321.27905273 C449.05829945 326.48931273 451.38278891 332.62056193 451.4533844 339.592453 C451.46632034 340.66729446 451.47925629 341.74213593 451.49258423 342.84954834 C451.50155731 344.0292218 451.5105304 345.20889526 451.51977539 346.42431641 C451.53277176 347.66701797 451.54576813 348.90971954 451.55915833 350.19007874 C451.67117774 361.68339493 451.73178633 373.17737475 451.77592564 384.67113781 C451.8090494 393.1518801 451.8683756 401.63154275 451.96343666 410.11182231 C452.02815155 416.08998745 452.0615212 422.06786191 452.07267517 428.04636365 C452.08017896 431.60767208 452.10086343 435.16767723 452.15570259 438.72859764 C452.42478045 457.01989672 451.84070775 471.23914457 439.27929688 485.40405273 C432.04269636 490.76307506 424.77403591 491.08415366 416.05273438 490.89233398 C414.82390533 490.88525925 413.59507629 490.87818451 412.32901001 490.87089539 C408.43679747 490.8430963 404.54606842 490.78037991 400.65429688 490.71655273 C398.00197402 490.69145138 395.34962843 490.66864145 392.69726562 490.64819336 C386.22411046 490.59331685 379.7518097 490.5098347 373.27929688 490.40405273 C373.16020966 490.96958359 373.04112244 491.53511444 372.91842651 492.11778259 C371.24127712 499.89791772 368.89318973 507.41459036 366.40429688 514.96655273 C366.04813797 516.05030182 366.04813797 516.05030182 365.68478394 517.15594482 C360.91627656 531.53225986 355.13057293 545.62348143 346.97412109 558.45776367 C345.65924408 560.46295929 345.65924408 560.46295929 344.27929688 563.40405273 C345.39100423 566.55536812 347.1984779 568.54595975 349.57983398 570.83642578 C350.25070541 571.48778 350.92157684 572.13913422 351.61277771 572.81022644 C352.69873985 573.85247124 352.69873985 573.85247124 353.80664062 574.91577148 C355.33652682 576.4106113 356.86580467 577.90607392 358.39453125 579.40209961 C360.80201299 581.74779447 363.2136903 584.08856527 365.63647461 586.41845703 C367.97782322 588.67469177 370.2994781 590.94977444 372.61914062 593.22827148 C373.70206642 594.25533455 373.70206642 594.25533455 374.80686951 595.30314636 C379.48757535 599.93587617 381.79459843 603.98875254 383.27929688 610.40405273 C383.50617187 611.35280273 383.73304688 612.30155273 383.96679688 613.27905273 C384.74117285 621.02281252 385.31395351 628.4932214 381.27929688 635.40405273 C375.79192484 642.0522381 369.66540051 648.17940853 363.59765625 654.29443359 C362.78174515 655.12012848 361.96583405 655.94582336 361.12519836 656.79653931 C358.46091035 659.49041293 355.79265903 662.18029935 353.12304688 664.86889648 C352.20476608 665.7937491 351.28648529 666.71860172 350.34037781 667.67148018 C346.48216563 671.55597347 342.62230696 675.43882025 338.75855255 679.31780148 C333.25677223 684.84154057 327.76535575 690.37516057 322.28733015 695.92246145 C318.41137651 699.84573709 314.52391841 703.75737803 310.6278615 707.66068941 C308.3100947 709.98338998 305.99917163 712.31226043 303.69743347 714.65086174 C301.1325096 717.25467991 298.54930189 719.83894444 295.9609375 722.41943359 C295.21262161 723.18775009 294.46430573 723.95606659 293.6933136 724.74766541 C286.67069939 731.67501763 279.95791943 733.83663572 270.21679688 733.77905273 C261.16483611 733.6189244 256.25613573 732.58705512 249.77929688 726.15405273 C249.10898437 725.42702148 248.43867187 724.69999023 247.74804688 723.95092773 C245.78303982 721.92373692 243.82464982 720.12028175 241.68554688 718.29077148 C236.28342838 713.62129324 231.30258181 708.53547259 226.27929688 703.46655273 C225.30427301 702.48649963 224.32901408 701.50668033 223.35351562 700.52709961 C220.99313069 698.15502961 218.63512783 695.78064413 216.27929688 693.40405273 C212.18491813 694.67272287 208.53243806 696.20464646 204.76367188 698.23999023 C186.48857833 707.87409796 167.88167608 714.94498755 148.27929688 721.40405273 C146.27909822 722.07012314 144.27902973 722.73658516 142.27929688 723.40405273 C142.28231308 724.02442413 142.28532928 724.64479553 142.28843689 725.28396606 C142.31321496 731.80711997 142.28853605 738.32882283 142.23657227 744.85180664 C142.22352365 747.27820393 142.22261376 749.70470084 142.23461914 752.13110352 C142.3533933 779.60752528 142.3533933 779.60752528 132.44018555 791.63549805 C125.24877073 798.76167836 115.74295315 800.8409924 105.92092896 800.95727539 C104.782435 800.95074951 103.64394104 800.94422363 102.47094727 800.9375 C101.24015945 800.94611557 100.00937164 800.95473114 98.74128723 800.96360779 C95.39792198 800.98228886 92.05555774 800.98320881 88.71221852 800.97428632 C85.90683019 800.96913726 83.10152858 800.97650045 80.29614919 800.98375839 C73.67106821 801.00069557 67.0462179 800.99725443 60.42114258 800.98046875 C53.61753259 800.96355214 46.81456447 800.97938905 40.01102453 801.01169163 C34.139703 801.03849786 28.26857991 801.04563403 22.39720339 801.03717655 C18.90362981 801.03227941 15.41044196 801.03428616 11.9169178 801.05496407 C8.01670882 801.07694911 4.11725728 801.0577983 0.21704102 801.03515625 C-0.91942871 801.04684845 -2.05589844 801.05854065 -3.22680664 801.07058716 C-13.49125415 800.95005579 -22.95997478 797.68804838 -31.03320312 791.21264648 C-36.46043992 785.3959552 -38.85280722 777.8877737 -38.83422852 770.0847168 C-38.83415298 769.02391907 -38.83407745 767.96312134 -38.83399963 766.87017822 C-38.82883835 765.73151306 -38.82367706 764.5928479 -38.81835938 763.41967773 C-38.81623695 761.66358185 -38.81623695 761.66358185 -38.81407166 759.87200928 C-38.80847402 756.13266444 -38.79592192 752.39337947 -38.78320312 748.65405273 C-38.77818782 746.11889735 -38.77362497 743.58374103 -38.76953125 741.04858398 C-38.75850536 734.83371981 -38.74176956 728.61889055 -38.72070312 722.40405273 C-39.28754822 722.28578125 -39.85439331 722.16750977 -40.43841553 722.0456543 C-48.1453383 720.39283319 -55.52619437 717.96247512 -62.97070312 715.40405273 C-63.67568939 715.16272614 -64.38067566 714.92139954 -65.10702515 714.67276001 C-80.65863624 709.31846465 -95.67312572 702.89843601 -109.66210938 694.16967773 C-111.69482793 693.15571213 -111.69482793 693.15571213 -113.61010742 694.12695312 C-115.95612746 695.54650556 -117.63570294 697.1085889 -119.54882812 699.07202148 C-120.26683594 699.80098633 -120.98484375 700.52995117 -121.72460938 701.28100586 C-122.46582031 702.04348633 -123.20703125 702.8059668 -123.97070312 703.59155273 C-128.79652916 708.53309574 -133.66049602 713.2953848 -138.90332031 717.79394531 C-141.51077689 720.10401733 -143.83766257 722.61309985 -146.22070312 725.15405273 C-153.11566705 732.13383425 -157.83072341 733.63012625 -167.59570312 733.84155273 C-183.41032129 733.71781622 -191.50259723 724.7602438 -202.09277344 714.20898438 C-202.88730927 713.42101974 -203.68184509 712.63305511 -204.50045776 711.82121277 C-207.10279739 709.23842708 -209.70124371 706.65177664 -212.29882812 704.06420898 C-213.19116905 703.17594358 -214.08350998 702.28767818 -215.00289154 701.37249565 C-219.2340308 697.16000016 -223.46313872 692.94548225 -227.68915296 688.72784621 C-232.54531322 683.88147758 -237.4096643 679.0435267 -242.28104329 674.21245676 C-246.52060309 670.00676612 -250.7490905 665.79005842 -254.97377777 661.56942558 C-256.76453182 659.7835355 -258.55865688 658.00101884 -260.35623932 656.22200203 C-262.86909154 653.73351683 -265.36899442 651.23267782 -267.86621094 648.72851562 C-268.60602203 648.00151459 -269.34583313 647.27451355 -270.10806274 646.52548218 C-278.09548445 638.45696183 -281.70162464 629.84113626 -282.03320312 618.46655273 C-281.58957545 600.78799007 -266.89302654 590.43481861 -255.15820312 578.77905273 C-253.85002533 577.47590327 -252.54208096 576.17251943 -251.234375 574.86889648 C-248.06583099 571.71124481 -244.89416135 568.55676523 -241.72070312 565.40405273 C-243.16256755 560.93567363 -244.92533715 556.86886769 -247.09570312 552.71655273 C-270.72070312 506.1756936 -270.72070312 506.1756936 -270.72070312 490.40405273 C-271.37501312 490.41515579 -272.02932312 490.42625885 -272.70346069 490.43769836 C-279.54972604 490.54882097 -286.39573275 490.6239389 -293.24267578 490.67871094 C-295.793563 490.70376401 -298.34437908 490.73781601 -300.89501953 490.78125 C-304.57407239 490.84230418 -308.25217133 490.87035622 -311.93164062 490.89233398 C-313.06121185 490.91814041 -314.19078308 490.94394684 -315.35458374 490.97053528 C-323.01151295 490.97321185 -328.20978319 489.39647326 -334.72070312 485.40405273 C-335.73503922 484.81996391 -335.73503922 484.81996391 -336.76986694 484.22407532 C-342.42567277 480.87375143 -346.34441799 474.82493591 -348.28425884 468.59380722 C-348.79960659 466.00817354 -348.85612478 463.60320139 -348.86787415 460.96563721 C-348.8786071 459.30872864 -348.8786071 459.30872864 -348.88955688 457.61834717 C-348.89224579 456.41099915 -348.89493469 455.20365112 -348.89770508 453.9597168 C-348.90427628 452.68451172 -348.91084747 451.40930664 -348.9176178 450.09545898 C-348.938614 445.87021127 -348.94901602 441.64496338 -348.95898438 437.41967773 C-348.96303359 435.96246065 -348.96715056 434.50524375 -348.97133446 433.04802704 C-348.99037638 426.20083282 -349.0046095 419.35364932 -349.01294643 412.50643373 C-349.02271548 404.61431653 -349.04903028 396.72248005 -349.08944732 388.83046174 C-349.11964984 382.72244861 -349.1344192 376.61451577 -349.13772744 370.50642943 C-349.1400732 366.86199073 -349.14897139 363.21785226 -349.17418861 359.57349396 C-349.20189275 355.50413971 -349.19762563 351.43540947 -349.19067383 347.3659668 C-349.20988892 345.56709015 -349.20988892 345.56709015 -349.22949219 343.73187256 C-349.18623811 336.78085744 -348.37525203 332.34751257 -344.72070312 326.40405273 C-344.23988281 325.54295898 -343.7590625 324.68186523 -343.26367188 323.79467773 C-338.92439977 316.94187914 -334.37980265 314.10026502 -326.72070312 311.40405273 C-324.03141785 311.08761597 -324.03141785 311.08761597 -321.10424805 310.9934082 C-320.00348434 310.95351776 -318.90272064 310.91362732 -317.76860046 310.87252808 C-316.00272331 310.82239059 -316.00272331 310.82239059 -314.20117188 310.77124023 C-312.98746414 310.72967804 -311.77375641 310.68811584 -310.52326965 310.64529419 C-306.65180788 310.51468015 -302.78007822 310.39670971 -298.90820312 310.27905273 C-296.28122246 310.19264635 -293.65426874 310.1054166 -291.02734375 310.01733398 C-284.59207884 309.8033566 -278.15654832 309.59975482 -271.72070312 309.40405273 C-271.49865204 308.70073318 -271.27660095 307.99741364 -271.04782104 307.27278137 C-270.02236846 304.03047065 -268.99265506 300.78952771 -267.96289062 297.54858398 C-267.43924927 295.88962097 -267.43924927 295.88962097 -266.9050293 294.19714355 C-261.01288787 275.68628307 -253.74346922 257.04720154 -243.29882812 240.57983398 C-242.77804688 239.53182617 -242.25726563 238.48381836 -241.72070312 237.40405273 C-242.80307912 234.35428618 -244.5012893 232.39380322 -246.8059082 230.17114258 C-247.43028275 229.56305756 -248.05465729 228.95497253 -248.69795227 228.32846069 C-249.37190536 227.68051544 -250.04585846 227.03257019 -250.74023438 226.36499023 C-252.16971043 224.96569959 -253.59873235 223.56594489 -255.02734375 222.16577148 C-257.27347888 219.97517199 -259.52321951 217.78868185 -261.78149414 215.6105957 C-263.96676937 213.49853907 -266.13550973 211.37054476 -268.30273438 209.23999023 C-268.97061478 208.60419037 -269.63849518 207.9683905 -270.32661438 207.31332397 C-277.68775415 200.03154124 -281.83231054 191.73510066 -282.03320312 181.34155273 C-282.01146827 161.18367946 -264.37147685 148.87102927 -251.16601562 135.61108398 C-250.32745907 134.7684519 -249.48890251 133.92581982 -248.62493515 133.05765343 C-244.193172 128.60515008 -239.75822531 124.1558452 -235.32080078 119.70898438 C-230.76104702 115.13813806 -226.21310197 110.55572478 -221.66765022 105.97066212 C-218.14655657 102.42334971 -214.61653515 98.88502263 -211.08410263 95.34900475 C-209.40395243 93.66400933 -207.72715787 91.97566048 -206.05392838 90.2837925 C-183.30945785 67.30160188 -183.30945785 67.30160188 -168.15820312 67.02905273 C-167.01641602 66.97297852 -167.01641602 66.97297852 -165.8515625 66.91577148 C-157.49064057 66.78919739 -150.65667387 70.27496431 -144.63549805 75.98510742 C-143.31145387 77.33648106 -142.00034436 78.70062612 -140.70117188 80.07592773 C-139.64147942 81.16046234 -139.64147942 81.16046234 -138.56037903 82.26690674 C-136.33041309 84.55080816 -134.11782789 86.85047846 -131.90820312 89.15405273 C-129.67974304 91.47084253 -127.4476292 93.78342999 -125.20246887 96.08404541 C-123.81233285 97.5088877 -122.43172262 98.9431028 -121.0620575 100.38763428 C-120.12001213 101.35434052 -120.12001213 101.35434052 -119.15893555 102.34057617 C-118.6139592 102.90951599 -118.06898285 103.47845581 -117.50749207 104.06463623 C-115.24060544 105.76394457 -113.52772462 106.14390571 -110.72070312 106.40405273 C-108.23297513 105.46029766 -106.05396322 104.47798527 -103.71679688 103.24780273 C-102.3319662 102.55091156 -100.94711854 101.85405413 -99.56225586 101.15722656 C-98.84286835 100.78868561 -98.12348083 100.42014465 -97.3822937 100.04043579 C-85.16849923 93.7998855 -73.0432042 88.08514766 -59.89648438 84.07006836 C-57.60965856 83.37006153 -55.33723216 82.63269625 -53.06445312 81.88842773 C-42.3035747 78.40405273 -42.3035747 78.40405273 -38.72070312 78.40405273 C-38.73180618 77.73721466 -38.74290924 77.07037659 -38.75434875 76.3833313 C-38.86545328 69.40730256 -38.94058201 62.43152747 -38.99536133 55.45483398 C-39.02041762 52.85544617 -39.05447204 50.2561282 -39.09790039 47.65698242 C-39.15893997 43.90843414 -39.18700347 40.16082195 -39.20898438 36.41186523 C-39.2347908 35.26042023 -39.26059723 34.10897522 -39.28718567 32.92263794 C-39.29028731 23.88529232 -36.73165997 18.07622715 -31.90820312 10.59155273 C-22.93974924 1.62309885 -12.21339572 -0.04740719 0 0 Z M8.27929688 203.40405273 C6.94294189 203.7255127 6.94294189 203.7255127 5.57958984 204.0534668 C-28.55174534 212.50175621 -59.24690229 229.13460065 -84.72070312 253.40405273 C-85.29079102 253.94690918 -85.86087891 254.48976562 -86.44824219 255.04907227 C-95.04552445 263.29018781 -102.85797211 271.65582271 -109.72070312 281.40405273 C-110.32857666 282.25338379 -110.32857666 282.25338379 -110.94873047 283.11987305 C-127.15151233 305.89852076 -137.41502925 331.25334503 -143.72070312 358.40405273 C-143.90004395 359.15251465 -144.07938477 359.90097656 -144.26416016 360.67211914 C-150.08591448 386.21961902 -148.92038728 417.10990756 -142.72070312 442.40405273 C-142.39924316 443.74040771 -142.39924316 443.74040771 -142.07128906 445.10375977 C-133.62299965 479.23509495 -116.99015521 509.9302519 -92.72070312 535.40405273 C-92.17784668 535.97414063 -91.63499023 536.54422852 -91.07568359 537.1315918 C-82.83456805 545.72887406 -74.46893315 553.54132172 -64.72070312 560.40405273 C-64.15448242 560.80930176 -63.58826172 561.21455078 -63.00488281 561.63208008 C-40.22623509 577.83486194 -14.87141083 588.09837886 12.27929688 594.40405273 C13.02775879 594.58339355 13.7762207 594.76273438 14.54736328 594.94750977 C40.09486316 600.76926409 70.9851517 599.60373689 96.27929688 593.40405273 C97.1702002 593.18974609 98.06110352 592.97543945 98.97900391 592.75463867 C134.30870975 584.00972499 165.05846743 566.51514235 191.27929688 541.40405273 C192.02759766 540.69659912 192.02759766 540.69659912 192.79101562 539.97485352 C221.66916712 512.57216028 239.3383181 476.90174643 248.27929688 438.40405273 C248.4586377 437.65559082 248.63797852 436.90712891 248.82275391 436.13598633 C254.64450823 410.58848645 253.47898103 379.69819791 247.27929688 354.40405273 C247.06499023 353.51314941 246.85068359 352.62224609 246.62988281 351.7043457 C238.17806599 317.5587597 221.53883598 286.90094082 197.27929688 261.40405273 C196.77414551 260.87166992 196.26899414 260.33928711 195.74853516 259.79077148 C187.51306483 251.16846518 178.94468623 243.39258646 169.27929688 236.40405273 C168.4043457 235.77055908 168.4043457 235.77055908 167.51171875 235.12426758 C144.81052795 218.90824133 119.36251269 208.69405181 92.27929688 202.40405273 C91.53083496 202.22471191 90.78237305 202.04537109 90.01123047 201.8605957 C64.46373059 196.03884138 33.57344205 197.20436858 8.27929688 203.40405273 Z " fill="#EDEDED" transform="translate(348.720703125,-0.404052734375)"/>
<path d="M0 0 C0.7213916 0.21430664 1.4427832 0.42861328 2.18603516 0.64941406 C22.42743078 6.79835892 38.61109691 17.52903148 54 32 C54.59039062 32.5259375 55.18078125 33.051875 55.7890625 33.59375 C70.73073802 47.4732211 80.27106446 66.71545534 86 86 C86.31759277 87.03374756 86.31759277 87.03374756 86.64160156 88.08837891 C92.86333561 109.16437974 92.43751706 135.04622492 86 156 C85.78569336 156.7213916 85.57138672 157.4427832 85.35058594 158.18603516 C79.20164108 178.42743078 68.47096852 194.61109691 54 210 C53.4740625 210.59039062 52.948125 211.18078125 52.40625 211.7890625 C38.5267789 226.73073802 19.28454466 236.27106446 0 242 C-0.68916504 242.21172852 -1.37833008 242.42345703 -2.08837891 242.64160156 C-23.16437974 248.86333561 -49.04622492 248.43751706 -70 242 C-70.7213916 241.78569336 -71.4427832 241.57138672 -72.18603516 241.35058594 C-92.42743078 235.20164108 -108.61109691 224.47096852 -124 210 C-124.88558594 209.21109375 -124.88558594 209.21109375 -125.7890625 208.40625 C-140.73073802 194.5267789 -150.27106446 175.28454466 -156 156 C-156.21172852 155.31083496 -156.42345703 154.62166992 -156.64160156 153.91162109 C-162.86333561 132.83562026 -162.43751706 106.95377508 -156 86 C-155.78569336 85.2786084 -155.57138672 84.5572168 -155.35058594 83.81396484 C-149.20164108 63.57256922 -138.47096852 47.38890309 -124 32 C-123.4740625 31.40960938 -122.948125 30.81921875 -122.40625 30.2109375 C-108.5267789 15.26926198 -89.28454466 5.72893554 -70 0 C-68.96625244 -0.31759277 -68.96625244 -0.31759277 -67.91162109 -0.64160156 C-46.83562026 -6.86333561 -20.95377508 -6.43751706 0 0 Z " fill="#FF4A4A" transform="translate(436,280)"/>
</svg>
